<svg width="462" height="202" viewBox="0 0 462 202" fill="none" xmlns="http://www.w3.org/2000/svg">
<path d="M444.438 66C443.441 65.0277 441.615 63.553 442.072 61.8336C442.421 60.5225 443.939 60.7643 444.438 62.5143" stroke="#DD3636" stroke-linecap="round"/>
<path d="M444.438 66C445.435 65.0277 447.389 63.5969 446.932 61.8775C446.583 60.5664 444.937 60.7643 444.438 62.5143" stroke="#DD3636" stroke-linecap="round"/>
<path fill-rule="evenodd" clip-rule="evenodd" d="M214.119 40.2688C220.38 26.6584 215.783 10.9029 202.1 3.99254C188.497 -2.87755 166.95 -0.532643 139.875 19.2039C112.575 39.1052 93.4148 72.1494 86.1727 101.118C82.5533 115.596 81.8431 129.319 84.7977 140.015C87.1711 148.607 91.97 155.356 99.5012 158.75C88.8133 167.588 78.2309 175.44 68.1999 181.654C58.6193 187.589 49.6316 191.973 41.6023 194.32C33.5541 196.672 26.7026 196.912 21.2163 194.88C15.3706 192.715 11.3357 187.772 8.79299 180.931C6.24311 174.071 5.3 165.545 5.53465 156.791C5.76871 148.06 7.17012 139.26 9.18795 131.935C11.2384 124.491 13.82 118.961 16.1782 116.427C17.1188 115.416 17.0619 113.835 16.0511 112.894C15.0403 111.953 13.4584 112.01 12.5179 113.021C9.29271 116.487 6.45765 123.019 4.3675 130.607C2.24471 138.313 0.781554 147.514 0.53645 156.657C0.291945 165.778 1.25509 175.002 4.10625 182.673C6.96461 190.364 11.8255 196.734 19.4797 199.568C26.3571 202.116 34.4033 201.633 43.0052 199.119C51.6259 196.599 61.0406 191.971 70.8329 185.905C81.8681 179.069 93.4971 170.335 105.157 160.545C105.41 160.596 105.665 160.643 105.922 160.688C147.143 167.812 192.868 160.595 260.527 124.429C261.313 124.009 262.095 123.586 262.875 123.161C264.14 123.649 265.457 124.104 266.825 124.526C267.136 124.621 267.462 124.694 267.779 124.741C317.68 132.072 349.26 114.243 363.86 96.001C365.27 99.0272 368.438 100.5 373.533 100.5C377.601 100.5 381.652 98.734 384.707 96.2027C384.835 96.8944 385.072 97.607 385.478 98.2896C386.038 99.2316 387.375 101.029 389.827 100.721C390.848 100.593 391.759 100.109 392.555 99.5165C393.364 98.9143 394.204 98.0857 395.099 97.0401C397.855 93.819 401.755 87.7818 407.51 77.2437L406.256 82.5467C404.804 88.6895 411.852 92.8054 416.629 89.1666C418.825 87.4946 420.973 85.9678 422.751 84.9235C423.644 84.3985 424.371 84.0395 424.915 83.8389C425.155 83.7504 425.308 83.7126 425.388 83.696C425.64 83.7948 425.935 84.007 426.331 84.4787C426.682 84.8975 426.944 85.2935 427.272 85.7898L427.272 85.79C427.475 86.0958 427.702 86.4396 427.991 86.8503C428.626 87.7528 429.538 88.9208 430.899 89.6712C432.383 90.4894 434.097 90.6567 436.006 90.136C440.038 89.0364 442.655 87.2008 445.17 85.1538C445.285 85.1807 445.489 85.2443 445.833 85.3897C445.935 85.4327 446.09 85.5026 446.275 85.5852L446.275 85.5853C446.679 85.7664 447.22 86.0091 447.633 86.1671C448.354 86.4424 449.288 86.7241 450.348 86.7241C450.907 86.7241 451.431 86.5721 451.741 86.4726C452.112 86.3534 452.509 86.1961 452.901 86.0266C453.689 85.6861 454.604 85.2317 455.522 84.7506C457.364 83.7844 459.357 82.6341 460.634 81.8678C461.818 81.1575 462.202 79.6218 461.492 78.4379C460.781 77.2539 459.246 76.87 458.062 77.5804C456.839 78.3141 454.932 79.4138 453.199 80.3226C452.329 80.779 451.539 81.1683 450.917 81.4372C450.604 81.5724 450.371 81.6612 450.213 81.7119L450.203 81.7151C450.021 81.6939 449.772 81.6319 449.418 81.4964C449.094 81.3726 448.865 81.2685 448.589 81.1423C448.373 81.0433 448.126 80.9308 447.781 80.7846C446.628 80.2972 444.284 79.4216 442.107 81.2C439.794 83.0891 437.799 84.4644 434.69 85.3122C433.85 85.5415 433.501 85.3963 433.313 85.2927C433.002 85.1211 432.633 84.7579 432.08 83.9729C431.96 83.8023 431.814 83.5835 431.651 83.3378L431.649 83.3356C431.227 82.7029 430.687 81.8923 430.162 81.2664C429.339 80.2848 428.169 79.2274 426.454 78.7987C425.243 78.4959 424.02 78.8403 423.187 79.1471C422.247 79.4933 421.233 80.0163 420.218 80.6123C418.18 81.8099 415.843 83.4804 413.6 85.189C412.312 86.17 410.82 84.9739 411.122 83.6969L414.927 67.5996C415.452 65.5285 414.121 63.9468 412.718 63.4226C411.316 62.8986 409.282 63.2155 408.3 65.1054C399.542 81.9624 394.395 90.1725 391.3 93.7892C390.594 94.6136 390.053 95.1295 389.657 95.4393C389.604 95.2445 389.569 94.976 389.578 94.6082C389.593 94.0002 389.722 93.3041 389.91 92.5425C390.454 90.343 390.504 87.7177 390.094 85.35C390 83.8133 389.534 82.4741 388.78 81.3446C388.475 80.7802 388.112 80.2477 387.681 79.7777C386.904 78.9301 385.867 78.2572 384.617 78.0495C382.968 77.3573 381.056 77 379.033 77C374.034 77 368.224 81.0843 365.155 85.616C364.824 85.8271 364.537 86.1198 364.329 86.485C353.944 104.682 323.211 127.73 268.805 119.838C298.36 102.839 322.379 82.3584 336.089 63.0214C343.564 52.4793 348.128 42.0598 348.63 32.5844C349.142 22.9374 345.421 14.4588 336.819 8.20225C326.563 0.743827 315.7 -0.727884 305.182 1.49696C294.762 3.70118 284.739 9.51203 275.863 16.511C258.125 30.4979 244.303 49.7642 240.177 56.9837C235.909 64.4529 232.679 78.1444 235.388 91.5424C237.644 102.699 244.026 113.629 257.147 120.564C192.552 154.925 148.867 162.202 110.132 156.306C117.509 149.932 124.867 143.182 132.063 136.271C152.262 116.87 171.264 96.1178 185.943 78.6422C193.283 69.9042 199.555 61.9704 204.362 55.4214C209.129 48.9255 212.565 43.647 214.119 40.2688ZM381.833 82.3633C381.05 82.1396 380.116 82 379.033 82C377.189 82 374.338 83.2296 371.712 85.6493C368.986 88.1603 368 90.5431 368 91.5C368 93.6255 368.558 94.25 368.832 94.4849C369.264 94.8563 370.484 95.5 373.533 95.5C375.885 95.5 378.466 94.5755 380.685 92.9924C382.949 91.3768 384.315 89.4546 384.755 88.0265C385.016 87.1811 385.117 86.4888 385.114 85.9185C385.054 85.6139 384.983 85.3181 384.901 85.035C384.775 84.6023 384.636 84.241 384.496 83.9466C384.428 83.8594 384.359 83.7806 384.29 83.7091C384.055 83.4637 383.744 83.2198 383.359 82.9964C382.781 82.9644 382.247 82.7328 381.833 82.3633ZM89.6172 138.683C91.9297 147.055 96.6043 152.804 103.89 155.071C112.168 148.038 120.474 140.469 128.599 132.665C148.656 113.401 167.537 92.7814 182.115 75.4263C189.404 66.7489 195.604 58.9026 200.331 52.4629C205.097 45.97 208.256 41.0511 209.577 38.1793C214.816 26.7897 210.914 14.0453 199.846 8.45562C188.699 2.82571 169.246 3.9808 142.821 23.2443C116.621 42.343 98.0313 74.2988 91.0234 102.33C87.5179 116.353 86.978 129.129 89.6172 138.683ZM332.01 60.1295C318.274 79.5035 293.428 100.461 262.559 117.626C248.709 111.556 242.432 101.148 240.289 90.5513C237.826 78.3742 240.834 65.9128 244.519 59.4644C248.393 52.684 261.821 33.9503 278.959 20.4372C287.52 13.6861 296.841 8.37199 306.217 6.38872C315.496 4.42606 324.883 5.70436 333.878 12.2459C341.093 17.4935 344.061 24.3414 343.637 32.3195C343.205 40.4691 339.211 49.9732 332.01 60.1295ZM389.946 95.9872C389.946 95.9878 389.943 95.9842 389.935 95.9754C389.942 95.9823 389.946 95.9866 389.946 95.9872Z" fill="url(#paint0_linear_7_2)"/>
<defs>
<linearGradient id="paint0_linear_7_2" x1="-29" y1="201" x2="560.5" y2="39.5" gradientUnits="userSpaceOnUse">
<stop stop-color="#C33C54"/>
<stop offset="1" stop-color="#AEF3E7"/>
</linearGradient>
</defs>
</svg>
